# xmcd
# 
# Track frame offsets:
#   150
#   21586
#   39333
# 
# Disc length: 793 seconds
# 
# Revision: 12
# Processed by: cddbd v1.5.1PL0 Copyright (c) Steve Scherf et al.
# Submitted via: VOLTOCDX V1.0.24 
# 
DISCID=1e031703
DTITLE=Ghasitaram - Jab Pade Jootein
DYEAR=2003
DGENRE=Description of the extended genre
TTITLE0=Jooton ki Baarish
TTITLE1=Kaisa ye dard hai
TTITLE2=Majnu ka deewala
EXTD=Extended CD description
EXTT0=
EXTT1=
EXTT2=
PLAYORDER=
